<?xml version="1.0" encoding="UTF-8"?>
<svg version="1.1" viewBox="0 0 2048 1554" width="1280" height="1280" xmlns="http://www.w3.org/2000/svg">
<path transform="translate(0)" d="m0 0h2048v1554h-2048z" fill="#FCFEFC"/>
<path transform="translate(1184,174)" d="m0 0h28l10 2 8 5 3 6 1 321 1 3 23 12 14 9 8 9 6 12 3 14v389l-1 5h-12l-60-6-22-4-33-8-51-15-30-10-27-11-16-7-16-9-24-11-19-10-9-5-6-2-11-6-5-5-10-5-28-19-19-14-14-11-15-13-11-9-23-23-10-13-8-10-2-5 4 2v2l4 2 12 11 11 9 8 7 6 4h2l5-9 1-28v-78l2-16 5-16 7-13 12-16 9-10 15-11 25-13 52-25 19-10 26-14 17-9 9-3-7 15-1 6v32l1 31 6 83 3 29 5 35 2 7 3 1 3-48 6-135 2-26 4-13 7-11 6-8 10-7 16-8h19l19 5 19 6 5-1 2-2v-169l-1-114-3-5-8-4-18 4-14 6-8 6-14 7-6 4-6 3 9-3-3 3-14 9-10 6-11 7-18 12-12 9-11 14-11 19v28l3 23 2-24 4-14 5-9 8-10 11-11 11-8 9-6 21-13 12-8 22-14 14-9 11-5 5 2-2 5-6 2-5 2-11 7-15 10-17 11-21 14-13 10-14 14-4 5-1 3h-2l-1 13-1 26-1 101-7 6-9 5-16 7-7 4-5 1-1-15-1-42v-83l1-24 3-11 8-16 7-9 11-11 11-8 15-9 18-11 16-10 14-9 21-12 23-15 9-5 14-4z" fill="#1A73A7"/>
<path transform="translate(797,910)" d="m0 0 5 1 30 15 25 10 24 9 30 9 21 6 56 14 32 6 40 7 32 7 49 8 52 6 94 9 2 2 1 4v21l-2 10-5 10-7 7-5 3-4 1-43 2h-3v4l-2 1-2 19-4 11-6 8-9 8-9 4-7 1h-30l-12-2-10-5-7-7-6-12-3-12 1-10-4-7v-2l-93 1-1 19-2 13-7 14-9 8-7 2h-37l-7-3-6-4-8-9-3-8-1-7-1-19-1-3-2-1-44-4-10-5-5-6-4-7-2-12-1-86-3-7-9-6-18-10-20-14-11-9z" fill="#1A73A7"/>
<path transform="translate(746,336)" d="m0 0 2 1-10 13-9 13-17 28-12 21-10 23-7 18-7 27-5 28-2 19-1 25 2 27 4 25 6 24 11 31 7 16 12 22 16 24 14 19 9 11 12 13 11 12 8 7 10 9 15 11 18 14 14 11 12 7 14 9 19 11 16 9v2l7 1 4 3 9 2 16 8 21 9 19 8 24 9 29 10 17 5 19 6 55 15 38 10 27 6 31 7 33 7 41 7 46 9 11 2v1h-74l-46-3-46-5-74-9-43-8-24-5-40-10-30-9-30-11-29-12-25-11-36-19-14-8-21-13-11-7-6-3-6-7-6-4-17-14-10-9-14-12-19-19-9-11-11-13-10-13-15-23-8-16-10-19-10-25-7-21-6-28-3-21-1-12v-32l3-29 4-22 6-24 7-21 9-21 10-19 9-15 9-14 8-11 10-11 7-8 6-7 10-10 11-9z" fill="#06537D"/>
<path transform="translate(987,1299)" d="m0 0h17l33 3 21 8 12 6 11 9 7 10 8 16 4 14 1 6v34l-2 10-6 17-8 14-9 10-15 10-15 6-21 5-22 3h-16l-21-3-27-8-14-9-10-9-5-6-8-18-3-13-1-8v-36l2-13 5-14 8-13 11-11 14-9 15-6 13-3z" fill="#06527D"/>
<path transform="translate(1632,1302)" d="m0 0h88l24 4 13 5 8 5 10 9 6 10 4 12 1 5v22l-4 14-11 17-14 12-4 4 1 7 9 14 11 15 8 14 4 5-4 1h-27l-12-1-8-4-11-15-8-13-7-11-8-7-3-1h-42l-5 6v45l-6 1h-22l-13-1-1-2v-154l1-16 1-1z" fill="#06527D"/>
<path transform="translate(487,1302)" d="m0 0h99l21 3 13 4 11 6 9 7 7 11 5 15 1 4v23l-5 15-7 11-5 6-11 9-4 5 1 7 11 17 16 24 5 7v1h-29l-15-2-5-3-7-8-13-19-9-13-7-6-9-1h-36v2l-3 2-1 38-1 8-1 1h-35l-5-1-1-4-1-148 2-20z" fill="#06527D"/>
<path transform="translate(1408,1302)" d="m0 0h145l4 1v29l-1 7-116 1-2 1-1 4v25l109 2 2 1-1 32-108 1-2 1-1 6 1 20 2 5 106 1 12 1v36l-37 1h-86l-39-1-2-3-1-35v-125l1-10z" fill="#06537D"/>
<path transform="translate(245,1302)" d="m0 0h20l1 8 1 37 1 65 4 11 4 6 9 6 10 4 15 3h27l20-4 8-3 7-6 6-12 1-3 1-99 1-11 5-1h36l2 11 1 28v18l-1 37-2 24-7 21-5 8-9 9-18 10-15 5-20 4-17 2h-23l-24-4-25-8-10-7-9-7-9-13-5-13-2-10-1-10v-99l2-6z" fill="#06537D"/>
<path transform="translate(1300,1302)" d="m0 0h44l-1 3-8 6-8 8-11 8-14 11-12 11-9 8-5 5-11 8-7 7-7 5-1 2v6l6 7 8 7 15 13 15 14 10 9 15 13 22 18 3 3v2h-43l-11-4-11-9-12-11-8-7-11-10-8-7-13-11-12-10-6-3h-10l-6 4-1 62-2 4-9 1-22-1-7-2-1-12-1-139 1-18h41l1 2 1 60 2 5 2 2 9-1 9-4 14-10 8-8 11-9 14-12 10-9 9-7 8-6z" fill="#06537D"/>
<path transform="translate(1107,119)" d="m0 0 5 1v2l-8 7-18 12-20 10-14 8h-2v2l-18 10-8 4-8 5-9 5-3 3-6 3-5 6-2 4v10 1l6 5-1 3-4 3h-3l-2 4-2 3-12 3-1 9-5 8-7 17-9 6h-4l1-6h-2l1-13h2l1-22 3-10 3-8-7 4-12 6-14 8-16 8-19 9-9 5-11 5-11 4-28 7-17 4-5 5-4 3h-3v-2l-5-1-3-2-32-4-4-2 3-3 10-2h11l1-4 15-1v-2h-24l-2-7-7-5v-6l5-1 7 3 6 3 12 3 9 2 7 1-2 10-3 5 8-1 16-5 16-6 20-11 10-6 18-10 17-11 9-5 1-4-6-4-14 1-1-4-4-3h-5l-1 1h-6l-1-3-8-3-36-8-68-14-8-2v-4l4-3 6-2h19l73 4 11 1 3 7 2 5 5 2h5l5-6h14l7-1-3-5-9-11v-6l2-6h3v-3l4-1 1 3 4 1 2 4h2v8l3 6v2l16 3 35 2 3 4 6 2 9-5 4-3 5-2 40-24 4-4 7-2 6-4 18-9 20-2z" fill="#07547F"/>
<path transform="translate(713,1303)" d="m0 0h32l2 4 1 21v79l1 26 2 5 28 1 79 1 1 7v18l-1 9-1 2-11 1h-104l-36-1-1-2-1-35v-73l1-52 1-10z" fill="#06537D"/>
<path transform="translate(988,1335)" d="m0 0h24l16 3 12 5 11 10 6 12 2 11v26l-2 12-6 12-5 6-8 5-22 6-7 1h-21l-15-3-13-5-8-6-6-8-4-12-2-19v-9l2-18 4-10 7-8 16-8 9-2z" fill="#FDFFFD"/>
<path transform="translate(1133,198)" d="m0 0m-1 1m-2 1h2l-2 7-19 11-14 9-5 4h-2v-2l1-1-14 8-6 4-5 7-4 3 5-1 10-6 6-5 1-2 7-3 6-4h3v-2l21-11 2 1-7 5-6 3 9-3-3 3-14 9-10 6-11 7-18 12-12 9-11 14-11 19v28l3 23 2-24 4-14 5-9 8-10 11-11 11-8 9-6 21-13 12-8 22-14 14-9 11-5 5 2-2 5-6 2-5 2-11 7-15 10-17 11-21 14-13 10-14 14-4 5-1 3h-2l-1 13-1 26-1 101-7 6-9 5-16 7-7 4-5 1-1-15-1-42v-83l1-24 3-11 8-16 7-9 11-11 11-8 15-9 18-11 16-10 14-9 7-4z" fill="#1B73A7"/>
<path transform="translate(1014,607)" d="m0 0h13l5 3 4 6v7l-7 8-9 10-4 8-1 4v186l-2 12-5 5-6 1-5-3-4-8-1-4v-45l1-162 5-13 8-11z" fill="#FDFFFD"/>
<path transform="translate(554,1338)" d="m0 0h34l11 2 8 5 3 4 1 3v19l-3 8-5 5-5 3-6 1h-65l-4-2-3-7-1-33 3-4h2v-2l2-1z" fill="#FDFFFD"/>
<path transform="translate(1657,1339)" d="m0 0h66l10 3 7 6 3 8v14l-2 7-5 6-9 3-7 1h-67l-1-42 2-5z" fill="#FDFFFD"/>
<path transform="translate(934,642)" d="m0 0 9 1 6 4 2 3v11l-4 6-12 12-4 8-1 116-1 5-6 3-7-1-6-5-4-11 2-123 5-10 6-7 11-9z" fill="#FDFFFD"/>
<path transform="translate(1156,1076)" d="m0 0h27l23 1 6 2 3 2v12l-2 11-5 9-5 6-9 6-6 2h-11l-10-4-8-7-6-9-3-11v-11z" fill="#FDFFFD"/>
<path transform="translate(942,558)" d="m0 0 4 1-1 5-13 16-11 13-13 18-8 13-13 25-8 19-5 7-3 5h-3l-2-8v-17l5-23 6-16 9-16 13-16 7-7 13-9 14-7z" fill="#FDFFFD"/>
<path transform="translate(967,1077)" d="m0 0h41l2 4 5 1 1 1-1 16-2 11-6 11-8 7-5 2h-11l-12-6-6-8-4-11v-21z" fill="#FDFFFD"/>
<path transform="translate(764,240)" d="m0 0 8 1 9 5 12 3 9 2 7 1-2 10-3 5 8-1 16-5 11-4 2 1-1 2 6 2-4 2-3 1 1 2-23 6-6 2-4 4-4 3h-3v-2l-5-1-3-2-32-4-4-2 3-3 10-2h11l1-4 15-1v-2h-24l-2-7-7-5v-6z" fill="#1A73A7"/>
<path transform="translate(1252,974)" d="m0 0h7l29 5 46 9 11 2v1h-74l-46-3-46-5-24-3v-1h9l25 3 28 2h30l7-1 1-4 1-2 4 1v-2l-8-1z" fill="#1A73A7"/>
<path transform="translate(915,980)" d="m0 0 7 1 6 5 1 6v32l-2 4-6 2h-6l-5-9-2-12v-21l2-5z" fill="#FDFFFD"/>
<path transform="translate(746,336)" d="m0 0 2 1-10 13-9 13-14 23-2-1 1-3 3-5 2-6 2-3-2-2h-1l-9 10-7 9-6 5-2 5-3 5-1 2h-2l-2 4-2 1 2-5 9-14 11-13 12-13 4-5 10-10 11-9z" fill="#1A73A7"/>
<path transform="translate(1252,974)" d="m0 0h7l5 1-3 1 1 6h5v1l5 1 4 5-7 1h-16l-38-3-44-5-16-2v-1h9l25 3 28 2h30l7-1 1-4 1-2 4 1v-2l-8-1z" fill="#1A73A7"/>
<path transform="translate(1138,202)" d="m0 0 2 1-14 11-1 2-8 3-15 8h-2v2l-11 6-5 1-1 3-10 8-8 4-4-1 8-8 1-3 11-6 12-7-1 3h-2v2l6-4 10-7 21-12z" fill="#06537D"/>
<path transform="translate(974,203)" d="m0 0h5l2 4h2l-1 3-7 1-3 3-5 1-2 4-8 7-3 1-2 7-2 32-1 3 2 1-2 3h-2l1-6h-2l1-13h2l1-22 3-10 3-8-2-1 9-4 8-5z" fill="#267AAC"/>
<path transform="translate(786,267)" d="m0 0h10l6 5v2h7l-2 5-4 3h-3v-2l-5-1-3-2-7-1v-2l-11-1-13-1 4-4z" fill="#06527C"/>
<path transform="translate(1133,198)" d="m0 0m-1 1m-2 1h2l-2 7-19 11-14 9-5 4h-2v-2l1-1-14 8-4 3-3-1 7-6 11-6 15-10 14-8 8-5z" fill="#1E74A6"/>
<path transform="translate(1080,535)" d="m0 0h2l1 21-1 26-1 3-2 40-1 15h-1v-42z" fill="#0C5C89"/>
<path transform="translate(764,240)" d="m0 0 8 1 9 5 12 3 11 3-3 2-10 1-14-7-4-3-7-1v3l4 2 3 1 2 7h16l-4 2h-15l-2-7-7-5v-6z" fill="#1B74A8"/>
<path transform="translate(766,243)" d="m0 0 7 1 5 4 11 5 2 1 13-1 2 4-1 1-30-1-2-4v-3l-4-1-4-4z" fill="#06527C"/>
<path transform="translate(1011,603)" d="m0 0h11l7 3v1l-15 1-8 4-8 12-5 12h-1l-1-8 5-12 6-7z" fill="#06527C"/>
<path transform="translate(1e3 1e3)" d="m0 0 7 2 3 6-1 5-4 4-8-1-3-5v-7l3-3z" fill="#FDFFFD"/>
<path transform="translate(1092,226)" d="m0 0v3h-2l1 3-6 4-5 5-7 6-8 4-4-1 8-8 1-3 11-6z" fill="#136797"/>
<path transform="translate(1245,518)" d="m0 0 5 1 15 8 9 7 5 6v2l-5-1-3-3v-2l-4-2-4-4-3-1v-2h-3l-3-3-9-5z" fill="#0A5985"/>
<path transform="translate(1085,969)" d="m0 0h8l24 3 11 2 11 1 7 2v1l-16-1-30-4-15-3z" fill="#1B74A8"/>
<path transform="translate(1215,176)" d="m0 0h7l8 5 2 3v30h-1l-1-26-8-5-4-2z" fill="#07547F"/>
<path transform="translate(990,530)" d="m0 0 4 1-11 6-32 15-7 4v2l-5 2-4-1 4-2 3-3 26-13 19-9z" fill="#0C5B88"/>
<path transform="translate(771,160)" d="m0 0h19l8 1v2l-16 1h-15l-3 1-1 4-3-1 2-4z" fill="#1A73A7"/>
<path transform="translate(1101,492)" d="m0 0 3 1-6 9-5 5-4 6-2 4h-2l-1 2 1-6 7-11 6-8z" fill="#0A5985"/>
<path transform="translate(1107,119)" d="m0 0 5 1v2l-8 7-9 5-1-3 2-1-2-1 2-4 9-1v-2l-8-1v-1z" fill="#1A73A7"/>
<path transform="translate(859,783)" d="m0 0 4 3v2h2v2l2 1 5 6 28 22 1 2-4-2-12-9-10-8-14-12-2-1v-4z" fill="#0E5F8D"/>
<path transform="translate(1261,976)" d="m0 0 10 1v1h-6l1 2 10 3 2 1v2h2v2l3 2h-14v-1l6-1-4-3-5-1-4-2z" fill="#06527C"/>
<path transform="translate(993,215)" d="m0 0 4 2-1 3-4 3h-3l-2 4-2 3-5 1-2-1v-5l8-2 5-5z" fill="#1B74A8"/>
<path transform="translate(871,899)" d="m0 0 12 4 13 7 4 4-5-1-25-12z" fill="#1A73A7"/>
<path transform="translate(1082,237)" d="m0 0 2 1-11 9-8 4-4-1 3-3 14-8z" fill="#095782"/>
<path transform="translate(1011,606)" d="m0 0h15v1l-12 1-8 4-7 10-2-2 5-8 6-5z" fill="#1A73A7"/>
<path transform="translate(769,266)" d="m0 0m-7 1h7l-4 2-3 2 17 2 6 1v1h-9l-16-2-4-2 3-3z" fill="#1B74A8"/>
<path transform="translate(933,928)" d="m0 0 8 1 15 5 4 2v2l-9-2-18-7z" fill="#1B74A8"/>
<path transform="translate(949,253)" d="m0 0h1v13l-1 3 2 1-2 3h-2l1-6h-2l1-13z" fill="#3383B1"/>
<path transform="translate(1133,198)" d="m0 0m-1 1m-2 1h2l-2 7-7 4-2-1 2-3-2-2z" fill="#2E7EAD"/>
<path transform="translate(995,621)" d="m0 0h3l-1 6-4 9h-1l-1-8 3-6z" fill="#095884"/>
<path transform="translate(990,530)" d="m0 0 4 1-11 6-13 6-4-1 21-10z" fill="#0D5D8B"/>
<path transform="translate(865,243)" d="m0 0 2 1-2 5-1-2-7 5-10 4-3-1 20-11z" fill="#1B74A8"/>
<path transform="translate(859,783)" d="m0 0 4 3v2h2v2l2 1 5 6-1 2-10-9-2-1v-4z" fill="#0B5A87"/>
<path transform="translate(938,556)" d="m0 0 2 1-4 3-3 2-9 4h-3v-2z" fill="#136798"/>
<path transform="translate(827,267)" d="m0 0h6l-1 2-10 3h-9l3-2z" fill="#0B5B88"/>
<path transform="translate(785,275)" d="m0 0h8l7 3 8-1-5 5h-3v-2l-5-1-3-2-7-1z" fill="#1B74A8"/>
<path transform="translate(694,390)" d="m0 0 1 4-3 3-2 5h-2l-2 4-2 1 2-5 7-11z" fill="#1B74A8"/>
<path transform="translate(703,403)" d="m0 0v3l-6 12-2-1 1-5 3-6z" fill="#1B74A8"/>
<path transform="translate(960,938)" d="m0 0 9 1 12 4v2l-9-2-12-4z" fill="#1B74A8"/>
<path transform="translate(1049,499)" d="m0 0h3v2l-6 4h-3l-1 2-3-2z" fill="#0C5C88"/>
<path transform="translate(711,389)" d="m0 0v3l-6 11-2-1 3-9z" fill="#1B74A8"/>
<path transform="translate(911,140)" d="m0 0 2 1v2l4 1 2 4 2 1-4 1-1-4-4-2h-4v-3z" fill="#1B74A8"/>
<path transform="translate(885,246)" d="m0 0 2 2-3 2-8 2h-6l1-2 9-2z" fill="#1B74A8"/>
<path transform="translate(989,201)" d="m0 0 2 3v7 1l-3 1-2-5z" fill="#1B74A8"/>
<path transform="translate(1084,121)" d="m0 0 4 1-2 3h-6v-2l-4 2-3-1 4-2z" fill="#1B74A8"/>
<path transform="translate(1056,251)" d="m0 0 2 1 1 2-11 6-2-1z" fill="#07547E"/>
<path transform="translate(692,425)" d="m0 0 1 3-3 7-2-1-1-7 3-1 2 1z" fill="#1971A4"/>
<path transform="translate(911,164)" d="m0 0 5 1v2h2v4l-3 1-3-5z" fill="#1B74A8"/>
<path transform="translate(1013,1076)" d="m0 0h4v6l-7-2 1-3z" fill="#07547F"/>
<path transform="translate(905,144)" d="m0 0h3l-1 9h-3l-1 3v-6z" fill="#1B74A8"/>
<path transform="translate(949,663)" d="m0 0h2l-1 5-5 4v-4z" fill="#0B5A87"/>
</svg>
